<?xml version="1.0" encoding="utf-8"?>
<!-- Generator: Adobe Illustrator 23.0.1, SVG Export Plug-In . SVG Version: 6.00 Build 0)  -->
<svg version="1.1" id="Layer_1" xmlns="http://www.w3.org/2000/svg" xmlns:xlink="http://www.w3.org/1999/xlink" x="0px" y="0px"
	 viewBox="0 0 780.5 165.5" style="enable-background:new 0 0 780.5 165.5;" xml:space="preserve">
<style type="text/css">
	.st0{fill:#E30613;}
	.st1{fill:#EA5B0C;}
	.st2{fill:#F28E14;}
	.st3{fill:none;}
	.st4{fill:#010017;}
</style>
<path class="st0" d="M56,34.7c0,22.5-11.3,33.7-34,33.7H0V1.7h22C44.7,1.7,56,12.7,56,34.7z M43.3,34.7c0-3.3-0.3-6.4-1-9.1
	s-1.8-4.9-3.5-6.8s-3.8-3.3-6.6-4.3s-6.2-1.4-10.4-1.4h-9.5v43.8h9.5c4.2,0,7.6-0.5,10.3-1.5s5-2.4,6.6-4.3c1.7-1.9,2.8-4.3,3.5-7
	S43.3,38.2,43.3,34.7z"/>
<path class="st0" d="M72.5,75.2c2.8,0,5.3-2.9,7.4-8.8L62.5,20.1h12.9l10.3,30.3L96,20.1h12.9l-17.8,47C90.1,70,89,72.6,88,74.9
	c-1,2.3-2.1,4.4-3.5,6.1c-1.3,1.7-2.8,3-4.5,4c-1.7,0.9-3.7,1.4-6.2,1.4c-1.1,0-2.3-0.1-3.5-0.3c-1.2-0.1-2.5-0.4-3.8-0.9V73.7
	c1.6,0.6,2.8,1,3.7,1.3C71.4,75.1,72,75.2,72.5,75.2z"/>
<path class="st0" d="M128.1,68.4h-11.9V3.2h11.9V68.4z"/>
<path class="st0" d="M168.1,65.9c-4,2.4-8.5,3.6-13.6,3.6c-2.5,0-4.7-0.3-6.8-1.1c-2.1-0.7-3.9-1.7-5.4-3s-2.8-2.8-3.6-4.7
	c-0.9-1.8-1.3-3.8-1.3-6c0-11.7,9.6-17.5,28.9-17.5h1.9c0-1.3-0.1-2.4-0.3-3.4s-0.5-1.8-1.1-2.6c-0.6-0.7-1.5-1.2-2.6-1.6
	s-2.7-0.6-4.6-0.6c-5.7,0-8.7,2.6-8.9,7.6h-12C139.3,24.9,146.4,19,160,19c3.1,0,5.9,0.3,8.4,0.8c2.5,0.6,4.6,1.6,6.3,2.9
	c1.8,1.4,3,3.3,4,5.8s1.4,5.5,1.4,9.2v30.7h-11.9v-2.5H168.1z M168.1,46.9h-3.5c-10.1,0-15.1,2.4-15.1,7.4c0,1.7,0.6,2.9,2,3.8
	s3.1,1.3,5.3,1.3c1.1,0,2.2-0.1,3.3-0.3c1.1-0.2,2.1-0.6,3.1-0.9c1-0.4,1.9-0.9,2.8-1.6s1.5-1.4,2.2-2.3L168.1,46.9L168.1,46.9z"/>
<path class="st0" d="M205.7,23c3.5-2.7,7.1-4,11.2-4c11.4,0,17.1,6.2,17.1,18.4v31h-12V37.7c0-2.9-0.5-5.1-1.5-6.3
	c-1-1.3-2.5-1.9-4.8-1.9c-3.3,0-6.6,1.9-10,5.8v33.1h-11.9V20.1h11.9L205.7,23L205.7,23z"/>
<path class="st1" d="M282.8,68.8c-4.9,0-9.3-0.8-13.3-2.5s-7.4-4-10.2-7c-2.8-3-5-6.6-6.6-10.8c-1.5-4.3-2.4-8.9-2.4-14.2
	c0-5.3,0.8-10.1,2.4-14.3s3.8-7.8,6.6-10.8c2.9-2.9,6.2-5.3,10.1-6.9c4-1.6,8.3-2.4,13-2.4c4,0,7.7,0.6,11.1,1.7s6.5,2.8,9.1,4.9
	s4.8,4.6,6.4,7.6c1.6,2.9,2.6,6.3,2.9,9.9h-12.8c-0.2-2.1-0.7-3.9-1.5-5.4s-2-2.9-3.4-4.1c-1.5-1.1-3.1-1.9-5.1-2.6
	c-2-0.6-4.2-0.9-6.6-0.9c-2.9,0-5.5,0.5-8,1.6c-2.4,1.1-4.5,2.6-6.1,4.5c-1.7,2-3,4.4-4,7.3s-1.4,6.2-1.4,9.9c0,3.7,0.5,6.9,1.4,9.8
	c1,2.9,2.3,5.3,4,7.3s3.8,3.6,6.2,4.6c2.4,1.1,5,1.6,8,1.6c4.1,0,7.7-0.6,10.6-1.8c3-1.2,5.4-3.1,7.5-5.7v-7h-16.5V31.8h28.9v36
	h-9.6l-1.6-4.8c-2.3,1.9-5,3.4-8.3,4.3S286.9,68.8,282.8,68.8z"/>
<path class="st1" d="M347.5,68.8c-3.5,0-6.8-0.6-9.6-1.7c-2.9-1.2-5.4-2.8-7.5-4.9c-2.1-2.2-3.7-4.8-4.9-7.9
	c-1.1-3.2-1.7-6.7-1.7-10.7c0-3.9,0.5-7.4,1.6-10.6c1.1-3.1,2.7-5.8,4.7-7.9s4.4-3.8,7.2-5s5.9-1.8,9.3-1.8c3.5,0,6.7,0.6,9.5,1.7
	c2.8,1.2,5.2,2.8,7.2,4.9c2,2.2,3.6,4.8,4.6,7.9c1,3.2,1.6,6.7,1.6,10.7v3.8h-33.2c0.3,1.9,0.8,3.6,1.4,4.9c0.7,1.4,1.5,2.6,2.4,3.5
	c1,0.9,2.1,1.7,3.3,2.1c1.3,0.4,2.6,0.7,3.9,0.7c1.1,0,2.1-0.2,3.2-0.5s2-0.8,2.8-1.6c0.9-0.7,1.6-1.6,2.1-2.6
	c0.5-1,0.8-2.2,0.8-3.4H369c-0.4,2.9-1.3,5.6-2.6,7.8s-2.8,4.2-4.7,5.7c-1.9,1.6-4.1,2.7-6.5,3.5C352.9,68.4,350.3,68.8,347.5,68.8z
	 M356.7,37.4c-0.8-3-2-5.2-3.8-6.7c-1.8-1.4-3.9-2.2-6.3-2.2c-2.4,0-4.5,0.8-6.3,2.2c-1.8,1.4-3.1,3.7-3.8,6.7H356.7z"/>
<path class="st1" d="M400.5,18.4c3.5,0,6.7,0.6,9.5,1.7c2.8,1.2,5.2,2.8,7.2,4.9c2,2.2,3.5,4.8,4.6,7.9c1.1,3.2,1.6,6.7,1.6,10.7
	c0,4-0.5,7.6-1.6,10.7s-2.6,5.8-4.6,7.9s-4.4,3.8-7.2,4.9c-2.8,1.2-5.9,1.7-9.4,1.7c-3.4,0-6.5-0.6-9.3-1.7s-5.2-2.8-7.3-4.8
	c-2-2.2-3.6-4.8-4.6-7.9s-1.6-6.8-1.6-10.8c0-3.9,0.6-7.5,1.6-10.7c1.1-3.2,2.6-5.8,4.6-7.9c2-2.2,4.4-3.8,7.3-4.9
	C393.9,18.9,397.1,18.4,400.5,18.4z M400.5,58.7c1.6,0,3-0.3,4.3-0.9s2.4-1.6,3.4-2.8s1.6-2.8,2.2-4.7c0.5-1.8,0.8-4.1,0.8-6.6
	s-0.3-4.7-0.8-6.6c-0.5-1.9-1.3-3.4-2.2-4.8c-1-1.3-2-2.2-3.4-2.8s-2.8-0.9-4.3-0.9c-1.5,0-3,0.3-4.3,0.9c-1.3,0.7-2.5,1.6-3.4,2.8
	c-0.9,1.3-1.6,2.8-2.1,4.8s-0.8,4.1-0.8,6.6c0,2.5,0.3,4.7,0.8,6.6s1.3,3.4,2.1,4.7c1,1.3,2.1,2.2,3.4,2.8
	C397.5,58.4,398.9,58.7,400.5,58.7z"/>
<path class="st1" d="M461.1,31.3c-1.4-0.4-2.6-0.8-3.7-0.9c-1.1-0.3-2.2-0.3-3.1-0.3c-1.6,0-3.1,0.4-4.4,1.3c-1.4,0.8-2.7,2.1-4,3.8
	v32.7h-11.9V19.6h11.9v2.8c3-2.6,6.1-3.9,9.6-3.9c0.5,0,1.3,0.1,2.2,0.2c1,0.1,2.1,0.3,3.4,0.5C461.1,19.1,461.1,31.3,461.1,31.3z"
	/>
<path class="st1" d="M507.3,62.4c0,15.6-7.1,23.4-21.4,23.4c-3.1,0-5.9-0.4-8.4-1.2c-2.4-0.8-4.6-2-6.4-3.5s-3.1-3.3-4-5.3
	s-1.4-4.1-1.4-6.3h12.3c0,4.1,2.5,6.1,7.6,6.1c1.5,0,2.7-0.2,3.9-0.5c1.1-0.3,2.1-0.9,2.9-1.7c0.8-0.8,1.5-1.8,2-3.2
	s0.8-3.1,0.9-5.1c-3.2,2.3-6.7,3.5-10.6,3.5c-3.3,0-6.3-0.6-8.8-1.8s-4.6-2.8-6.4-5.1s-3.1-4.8-3.9-7.8c-0.9-3.1-1.3-6.4-1.3-10.2
	c0-3.9,0.6-7.5,1.6-10.7c1-3.2,2.5-5.8,4.4-8.1c1.9-2.2,4.1-3.9,6.6-5.1s5.3-1.8,8.2-1.8c3.8,0,7.3,0.8,10.3,2.6v-1.4h11.9
	L507.3,62.4L507.3,62.4z M495.5,32.8c-3-2.8-6.3-4.3-9.8-4.3c-2.8,0-5,1.3-6.6,3.8s-2.5,6.4-2.5,11.7c0,4.9,0.8,8.6,2.3,11.1
	c1.5,2.5,3.7,3.7,6.5,3.7c3.5,0,6.8-2.1,10-6.3V32.8L495.5,32.8z"/>
<path class="st1" d="M542,68.8c-3.5,0-6.8-0.6-9.6-1.7c-2.9-1.2-5.4-2.8-7.5-4.9c-2.1-2.2-3.7-4.8-4.9-7.9
	c-1.1-3.2-1.7-6.7-1.7-10.7c0-3.9,0.6-7.4,1.7-10.6c1.1-3.2,2.7-5.8,4.7-7.9s4.4-3.8,7.2-5s5.9-1.8,9.3-1.8c3.5,0,6.7,0.6,9.5,1.7
	c2.8,1.2,5.2,2.8,7.2,4.9s3.5,4.8,4.6,7.9c1,3.2,1.6,6.7,1.6,10.7v3.8h-33.2c0.3,1.9,0.8,3.6,1.5,4.9c0.7,1.4,1.5,2.6,2.4,3.5
	c1,0.9,2.1,1.7,3.3,2.1c1.3,0.4,2.5,0.7,3.9,0.7c1.1,0,2.1-0.2,3.2-0.5s2-0.8,2.8-1.6c0.9-0.7,1.6-1.6,2.1-2.6s0.8-2.2,0.8-3.4h12.5
	c-0.4,2.9-1.3,5.6-2.5,7.8s-2.8,4.2-4.7,5.7c-1.9,1.6-4,2.7-6.5,3.5C547.3,68.4,544.8,68.8,542,68.8z M551.2,37.4
	c-0.8-3-2-5.2-3.8-6.7c-1.8-1.4-3.8-2.2-6.3-2.2c-2.4,0-4.5,0.8-6.3,2.2s-3,3.7-3.8,6.7H551.2z"/>
<path class="st2" d="M628.7,13.3h-34.1v15.4h29.7v11.4h-29.7v28.4h-12.4V1.8h46.5V13.3L628.7,13.3z"/>
<path class="st2" d="M651.4,15.8h-11.9V3.3h11.9V15.8z M651.4,68.5h-11.9V20.3h11.9V68.5z"/>
<path class="st2" d="M684.2,69.6c-3.5,0-6.8-0.6-9.7-1.7c-2.9-1.2-5.4-2.8-7.5-4.9c-2.1-2.2-3.7-4.8-4.8-7.9s-1.7-6.7-1.7-10.7
	c0-3.9,0.6-7.4,1.7-10.5s2.7-5.8,4.7-7.9c2-2.2,4.4-3.8,7.2-5c2.8-1.2,5.9-1.8,9.3-1.8c3.5,0,6.7,0.6,9.5,1.7
	c2.8,1.2,5.2,2.8,7.2,4.9s3.6,4.8,4.6,7.9c1,3.2,1.6,6.7,1.6,10.7v3.8H673c0.3,1.9,0.8,3.6,1.5,4.9c0.7,1.4,1.5,2.6,2.4,3.5
	c1,0.9,2.1,1.7,3.3,2.1s2.5,0.7,3.9,0.7c1.1,0,2.1-0.2,3.2-0.6s2-0.8,2.8-1.6c0.9-0.7,1.6-1.6,2.1-2.6s0.8-2.2,0.8-3.4h12.5
	c-0.4,2.9-1.3,5.6-2.5,7.8s-2.8,4.2-4.7,5.7c-1.9,1.6-4,2.7-6.5,3.5C689.5,69.2,687,69.6,684.2,69.6z M693.4,38.1
	c-0.8-3-2-5.2-3.8-6.7c-1.8-1.4-3.9-2.2-6.3-2.2c-2.4,0-4.4,0.8-6.3,2.2c-1.8,1.4-3,3.7-3.8,6.7H693.4z"/>
<path class="st2" d="M728.4,68.5h-11.9V3.3h11.9V68.5z"/>
<g>
	<rect x="224.6" y="97.5" class="st3" width="365.8" height="62.1"/>
	<path class="st4" d="M222.7,135.2l0.9-0.7l0.1-1.5c1.2-2.9,2.4-5.8,3.7-8.5c1.3-2.7,2.6-5.5,4-8.3c0.4-0.9,0.9-1.8,1.3-2.7
		c0.5-0.9,0.9-1.9,1.3-2.8c0-0.2-0.1-0.4-0.1-0.6s0-0.5,0.1-0.8c0.7-1,1.2-1.8,1.6-2.6c0.4-0.8,0.8-1.6,1.2-2.4
		c0.4-1,0.9-1.9,1.4-2.9c0.5-1,1.1-1.9,1.9-2.8l0.5-0.7l0.8,0.1c0.2-0.1,0.4-0.2,0.6-0.3s0.5-0.1,0.8-0.1l1.3,0.2
		c1.6-0.7,3-1.8,4.2-3.1s2.5-3,3.7-5l0.9-1.2l1.2,0.7c0.2,0.1,0.6,0.3,1.2,0.4c0.5,0.1,1.1,0.3,1.7,0.5c1,0.2,2,0.5,3,0.8
		c1,0.3,1.7,0.7,2.2,1.3l0.4,0.7c0.1,0.5,0.2,1,0.3,1.4s0.2,0.9,0.3,1.3c0.2,1,0.4,2,0.5,3c0.1,1,0.2,2.1,0.3,3.3
		c0.2,1,0.5,1.9,0.7,2.9c0.2,1,0.4,2,0.6,2.9c0.2,1.4,0.5,2.7,0.8,4c0.3,1.3,0.7,2.5,1.2,3.6c0.5,0,0.8,0,0.9,0.1
		c0.6-0.2,1.3-0.4,2-0.4l0.9-0.1l0.3,0.9c0.1,0.1,0.2,0.3,0.4,0.4s0.3,0.3,0.5,0.4c0.8,0,1.3,0.2,1.7,0.5c0.4,0.3,0.7,0.5,0.9,0.8
		c0.1,0.1,0.2,0.2,0.4,0.3c0.1,0.1,0.3,0.2,0.4,0.3l1.3,0.5l-0.7,1.4c-0.5,1-1.3,2-2.4,3c-1.1,1-2.3,1.8-3.6,2.4
		c0.1,0.3,0.2,0.7,0.2,0.9c0,0.3,0.1,0.6,0.2,1c0.2,1,0.3,2,0.5,3c0.1,1,0.1,2.1,0,3.2c-0.5,1.3-1,2.4-1.7,3.4
		c-0.7,1-1.4,1.9-2.3,2.7c-0.9,0.8-1.9,1.4-3,2c-1.1,0.5-2.3,0.8-3.5,0.8c-0.7-0.1-1.2-0.3-1.5-0.5c-0.3-0.2-0.6-0.4-0.8-0.6
		c-0.4-0.3-0.7-0.5-0.9-0.6l-0.9-0.4l0.3-1.1c0.1-0.4,0.1-0.7,0-1c-0.2-0.3-0.5-0.7-1-1.2c-0.2-0.1-0.4-0.3-0.5-0.5
		c-0.1-0.2-0.3-0.3-0.5-0.5l-1.4-1.7l2.4-0.7c1.4-0.4,2.4-0.9,2.9-1.5c0.5-0.6,0.7-1.7,0.6-3.2c-1.2-0.2-2.2-0.3-3-0.1
		c-0.8,0.2-1.5,0.4-2.3,0.5c-1.1,0.3-2.2,0.5-3.3,0.8c-1.1,0.2-2.2,0.3-3.5,0.3c-0.8,0-1.7-0.1-2.6-0.2l-0.8-0.1l-0.2-0.8
		c0-0.1-0.1-0.2-0.2-0.3c-0.1-0.1-0.2-0.2-0.3-0.3c-0.2-0.3-0.5-0.7-0.9-1.2c-0.3-0.5-0.4-1.1-0.2-1.8c-0.3-0.5-0.5-1.1-0.6-1.7
		c-0.2,0.4-0.4,0.8-0.5,1.1c-0.1,0.4-0.2,0.7-0.3,1l-0.3,0.9l-0.9,0.1c-0.1,0.1-0.2,0.2-0.3,0.4c-0.1,0.2-0.1,0.3,0,0.4l0.3,0.8
		l-0.7,0.7c-0.1,0.1-0.2,0.3-0.4,0.4c-0.1,0.1-0.3,0.2-0.4,0.3c-0.1,0.5-0.2,1-0.4,1.5c-0.2,0.5-0.4,1-0.5,1.4
		c-0.2,0.8-0.5,1.5-0.7,2.2s-0.3,1.4-0.3,2.2l-0.3,0.9c-0.2,0.4-0.5,0.7-0.9,0.9c-0.4,0.2-0.7,0.4-1,0.5c-0.5,0.2-0.8,0.4-1,0.6
		l-0.2,0.9l-1.1,0.1c-0.6,0.1-1.1,0.2-1.3,0.3c-0.3,0-0.6,0.1-0.9,0.1l-0.9-0.1c-0.6-0.6-1-1-1.4-1.3c-0.4-0.3-0.8-0.6-1.3-0.8
		l-0.4-0.6c-0.2-0.4-0.3-0.7-0.4-1c0-0.3-0.1-0.6-0.2-1c-0.1-0.6-0.2-1.1-0.4-1.3L222.7,135.2z M245.8,116.4c-0.7,1-1.3,2-2,3
		c0.3,0,0.7-0.1,1-0.1c0.3,0,0.6,0,1-0.1c1.7-0.1,3.3-0.2,4.7-0.4s3-0.4,4.7-0.7c-0.4-1.8-0.8-3.6-1.3-5.5c-0.5-1.9-1-3.7-1.5-5.6
		l-0.4,0.7c-1.2,1.3-2.4,2.7-3.5,4.2C247.5,113.6,246.6,115,245.8,116.4L245.8,116.4z"/>
	<path class="st4" d="M312.2,122.5c0,0.2-0.1,0.4-0.1,0.6c0,0.2-0.1,0.3-0.1,0.5c0,0.1-0.1,0.3-0.1,0.5s0,0.5,0,0.8
		c-1.4,2.6-3.3,4.7-5.5,6.4c-2.2,1.7-4.6,3.3-7.2,4.6c-2.6,1.3-5.4,2.5-8.2,3.6c-2.8,1.1-5.6,2.3-8.3,3.5c-1.2-0.3-2-0.8-2.6-1.4
		c-0.6-0.7-1.1-1.5-1.4-2.3c-0.3-0.9-0.5-1.9-0.7-3c-0.1-1.1-0.2-2.2-0.3-3.4c0.1-0.5,0.3-1,0.6-1.3c0.3-0.4,0.4-0.9,0.4-1.6
		c0.4-1.3,0.8-2.5,1.2-3.7c0.4-1.2,0.6-2.4,0.7-3.7c0.1-0.4,0.4-0.7,0.8-0.8c0.2-2.3,0.3-4.7,0-7s-0.6-4.6-1.2-6.7
		c0-0.5,0.1-0.8,0.2-1s0.1-0.4,0-0.5c0-0.4,0.1-0.6,0.4-0.6c0.3,0,0.6,0,1,0c0-0.7-0.1-1.4-0.4-2.2c-0.3-0.7-0.5-1.5-0.8-2.5
		c0.3-0.7,0.6-1.4,0.7-2.1c0.1-0.7,0.3-1.3,0.7-1.8c2.6,0.8,5.1,1.8,7.5,3s4.7,2,7,2.5c1.7,1.3,3.5,2.5,5.3,3.7c1.8,1.2,3.5,2.6,5,4
		c1.5,1.5,2.7,3.1,3.8,5S312,119.9,312.2,122.5z M295.1,126.5c1-0.4,2-0.8,3-1.2c1-0.4,1.9-0.9,2.7-1.5c0.8-0.6,1.6-1.2,2.3-1.9
		c0.7-0.7,1.2-1.6,1.7-2.6c-0.3-0.6-0.7-1.1-1.2-1.6c-0.5-0.5-1-0.9-1.4-1.3c-0.5-0.4-1-0.8-1.4-1.3c-0.5-0.4-0.8-1-1.1-1.6
		c-0.6-0.1-1.2-0.3-1.7-0.5c-0.5-0.3-1-0.5-1.4-0.8c-0.5-0.3-0.9-0.5-1.4-0.8c-0.5-0.2-1.1-0.4-1.8-0.4c-1.1-0.5-2-0.9-2.9-1.2
		c-0.8-0.2-1.5-0.6-1.9-0.9c-0.3,0-0.6,0.1-0.8,0.2c0.5,1.8,0.8,3.6,1.1,5.2c0.2,1.6,0.4,3.2,0.4,4.8c0,1.6-0.1,3.3-0.3,5
		c-0.2,1.7-0.5,3.5-0.8,5.5c0.5,0,0.9-0.2,1.3-0.3c0.4-0.2,0.8-0.3,1.2-0.5c0.4-0.2,0.8-0.4,1.3-0.5c0.5-0.2,1-0.3,1.6-0.3
		c0.1-0.3,0.3-0.5,0.6-0.7C294.6,127,294.8,126.8,295.1,126.5z"/>
	<path class="st4" d="M335.2,129.3c0,0.7-0.2,1.3-0.5,1.9c-0.3,0.6-0.6,1.2-1,1.7c-0.4,0.6-0.8,1.1-1.3,1.6c-0.5,0.5-0.9,1-1.3,1.3
		c0.1,0.6,0.2,1.1,0,1.4c-0.1,0.3-0.2,0.8-0.1,1.4c-0.7,1.9-1.8,3.2-3.3,3.9c-1.5,0.7-2.9,0.5-4.2-0.4c-0.5-0.4-1-0.9-1.3-1.5
		c-0.4-0.6-0.9-1-1.5-1.1c0.1-0.8,0.1-1.6-0.2-2.5c-0.3-0.8-0.6-1.3-0.9-1.3c-0.1-1-0.4-2.1-0.7-3.3s-0.6-2.3-0.8-3.5
		c-0.2-1.2-0.4-2.3-0.6-3.5c-0.2-1.1-0.2-2.2-0.2-3.1c0-0.5,0-0.9-0.3-1.3c-0.2-0.4-0.4-0.8-0.5-1.4c-0.2-1.1-0.3-2.3-0.2-3.5
		s0.1-2.4,0.1-3.5c0-1.1-0.1-2.2-0.2-3.4c-0.1-1.2-0.2-2.4-0.3-3.5c-0.1-1.1-0.1-2.2-0.1-3.1s0.1-1.7,0.4-2.2c0.3-0.6,0.7-1,1.2-1.4
		s1-0.8,1.4-1.2c1.1,0.1,1.9,0.5,2.5,1.3c0.6,0.8,0.9,1.5,0.7,2.2c1,0.6,1.8,1.4,2.4,2.4c0.6,1,1.1,2.1,1.4,3.3s0.6,2.5,0.8,3.9
		s0.3,2.7,0.4,4c0.1,1.3,0.2,2.6,0.3,3.8c0.1,1.2,0.3,2.2,0.6,3.1c1.8-2.6,3.3-4.8,4.5-6.8c1.2-2,2.4-3.9,3.7-5.7
		c1.3-1.8,2.6-3.7,4.2-5.6c1.5-1.9,3.5-4,6-6.4c0.5,0,0.9,0.1,1.2,0.3c0.3,0.1,0.6,0.3,0.8,0.4c0.2,0.1,0.5,0.2,0.9,0.3
		c0.3,0.1,0.8,0.1,1.4,0c0.2,0.5,0.3,0.8,0.4,1c0.1,0.2,0.2,0.4,0.3,0.7s0.2,0.5,0.3,0.8c0.1,0.3,0.3,0.8,0.6,1.4
		c0.1,0.1,0.2,0.3,0.1,0.6c0,0.2-0.1,0.5-0.1,0.7c0,0.2,0,0.4,0,0.5c0,0.1,0.1,0.1,0.4,0c-0.1,0.7-0.4,1.3-0.8,1.8
		c-0.4,0.6-0.5,1.2-0.5,2c-1.1,1.4-2.3,2.9-3.6,4.5c-1.3,1.5-2.6,3.1-4,4.8c-1.3,1.6-2.6,3.4-3.8,5.2c-1.2,1.8-2.2,3.7-3.1,5.7
		c-0.2,0-0.4,0.1-0.5,0.2c-0.1,0.1-0.2,0.3-0.3,0.5c-0.1,0.2-0.2,0.3-0.3,0.5C335.5,129.3,335.4,129.3,335.2,129.3z"/>
	<path class="st4" d="M387.3,101.4c0,0.3,0.1,0.6,0,0.8c0,0.2,0,0.3-0.1,0.5c0,0.1,0,0.3,0,0.5c0,0.2,0,0.4,0.1,0.8
		c-1,1.6-2.2,2.8-3.5,3.4c-1.3,0.6-2.8,1-4.3,1.3c-1.5,0.3-3.1,0.5-4.7,0.8c-1.6,0.3-3.2,0.9-4.8,1.9c-0.6-0.2-1.2-0.2-1.7,0
		c-0.5,0.2-1.2,0.3-2.2,0.2c-0.3,0.3-0.7,0.5-1.1,0.6c-0.4,0.1-0.9,0.3-1.3,0.4c0.2,0.4,0.3,0.9,0.3,1.3c0,0.5,0,0.8,0.2,1.1
		c1.7,0.1,3.6,0.1,5.6-0.1c2-0.2,4.1-0.3,6-0.4c0,0.2,0,0.4-0.1,0.5c-0.1,0.1-0.1,0.2-0.1,0.4c0.3,0.2,0.7,0.5,1,0.9
		c0.3,0.4,0.7,0.7,1,1c0.3,0.3,0.7,0.6,1,0.8s0.8,0.3,1.3,0.3c0.2,0.4,0.3,0.8,0.4,1.3c0.1,0.5,0,0.9-0.2,1.4
		c-0.8,0.5-1.5,1.1-2.3,1.6c-0.8,0.6-1.6,1-2.4,1.5c-0.8,0.4-1.7,0.8-2.7,1c-0.9,0.3-2,0.4-3.1,0.3c-0.2,0-0.4,0-0.5,0
		c-0.1,0-0.3-0.1-0.5-0.2c-0.4,0.2-0.9,0.3-1.6,0.2c-0.7-0.1-1.2,0-1.6,0.2c-0.5-0.2-1.2-0.3-1.9-0.3c-0.7,0-1.4-0.1-2-0.3
		c-0.8,1-1.5,2.1-2.1,3.3c-0.6,1.2-1.2,2.4-1.7,3.7c1.6,0.2,3,0.3,4.1,0.3c1.1,0,2.1-0.1,3.1-0.3c1-0.1,2-0.2,3-0.4
		c1-0.1,2.3-0.2,3.8-0.1c1-0.5,2.1-0.9,3.4-1c1.3-0.2,2.5-0.4,3.6-0.8c0.4,0.1,0.7,0.4,1,0.8s0.6,0.7,0.8,1c0.3,0.3,0.5,0.6,0.8,0.8
		c0.3,0.2,0.7,0.3,1.1,0.3c0.2,0.2,0.3,0.4,0.4,0.7c0.1,0.3,0.1,0.5,0.2,0.8c0,0.2,0.1,0.4,0.3,0.6c0.1,0.2,0.3,0.2,0.6,0.2
		c-0.7,1.6-1.6,2.8-2.5,3.6c-0.9,0.8-2,1.5-3.2,1.9c-1.2,0.4-2.5,0.8-4,1c-1.5,0.2-3.1,0.5-4.9,0.9c-0.4,0.1-0.8,0.1-1.1,0
		c-0.3-0.1-0.6-0.2-1-0.2c-1.1,0.2-2.4,0.5-4,0.7c-1.5,0.2-3.1,0.3-4.7,0.2c-1.6,0-3.1-0.3-4.6-0.6s-2.6-1-3.5-1.9
		c-0.4-0.3-0.6-0.7-0.8-1.2c-0.1-0.5-0.4-0.8-1-1c0-0.6-0.1-1.3-0.3-2.1c-0.1-0.8-0.3-1.6-0.4-2.4c-0.1-0.8-0.3-1.7-0.3-2.5
		c-0.1-0.8,0-1.6,0.1-2.2c0.1-0.7,0.4-1.4,0.9-2c0.5-0.6,0.6-1.2,0.5-1.9c0.2,0,0.4-0.2,0.4-0.4c0-0.2,0.2-0.3,0.6-0.3
		c0.3-0.9,0.6-1.7,0.9-2.5c0.3-0.8,0.7-1.5,1-2.2s0.7-1.5,1.1-2.2c0.4-0.7,0.7-1.6,1-2.5c-0.7-0.6-1.2-1.3-1.5-2.1
		c-0.3-0.7-0.5-1.5-0.7-2.2c-0.1-0.7-0.3-1.5-0.4-2.3c-0.1-0.8-0.3-1.6-0.5-2.4c0.5-0.7,1.1-1.3,1.8-1.8c0.7-0.5,1.5-0.8,2.3-1.1
		c0.8-0.3,1.7-0.5,2.7-0.7c1-0.2,2-0.4,3-0.7c1.9-0.6,3.6-1.1,5.2-1.4c1.5-0.3,3-0.6,4.5-0.8c1.5-0.2,3-0.4,4.6-0.6
		c1.6-0.2,3.4-0.5,5.4-0.9c0.4,0.4,0.8,0.7,1.2,0.7c0.2-0.4,0.4-0.6,0.7-0.4c0.3,0.2,0.4,0,0.3-0.4c0.5,0.8,1.1,1.5,1.8,2.1
		C385.6,100.5,386.4,101,387.3,101.4z"/>
	<path class="st4" d="M400.4,128.9c-0.4,0.1-0.7,0.4-0.9,0.8c-0.2,0.4-0.4,0.8-0.5,1.3c-0.2,0.4-0.3,0.8-0.5,1.2
		c-0.2,0.4-0.4,0.5-0.8,0.5c0,0.4-0.2,0.7-0.4,1s-0.4,0.6-0.6,0.9c-0.2,0.3-0.3,0.7-0.4,1c-0.1,0.4,0,0.8,0.1,1.3
		c-0.4,0.3-0.6,0.7-0.7,1.2c-0.1,0.5-0.2,1-0.3,1.5c-0.1,0.5-0.3,0.9-0.6,1.2c-0.3,0.3-0.8,0.5-1.6,0.4c-0.1,0.2-0.2,0.3-0.1,0.4
		c0.1,0,0.2,0.2,0.2,0.5c-0.5-0.1-0.9-0.1-1.2,0.1c-0.3,0.2-0.6,0.3-1,0.3c-0.9-0.3-1.7-0.8-2.3-1.5c-0.6-0.7-1.1-1.5-1.6-2.4
		c-0.5-0.9-0.9-1.8-1.2-2.7c-0.4-0.9-0.7-1.7-1-2.4c0.1-0.5,0.2-1,0.1-1.6c-0.1-0.5-0.3-0.9-0.5-1.3c2.4-5,4.9-10.4,7.7-16
		c2.8-5.7,5.4-11.3,7.9-16.8c1.1,0.4,2.2,0.9,3.3,1.5c1.1,0.6,2.1,1.2,3,1.9c0.9,0.7,1.6,1.6,2.3,2.5c0.6,0.9,1,2,1.2,3.1
		c-0.1,0.3-0.2,0.4-0.3,0.3c-0.1-0.1-0.2,0-0.3,0.1c0.2,0.2,0.3,0.4,0.3,0.5c0,0.1,0,0.2,0,0.3c0,0.1,0,0.2,0,0.4
		c0,0.2,0.1,0.4,0.2,0.7c-0.2,0-0.3,0-0.4,0.1c-0.1,0.1-0.2,0.1-0.5,0c0.2,0.5,0.3,1,0.2,1.3c-0.1,0.3-0.2,0.6-0.3,0.9
		c-0.1,0.3-0.3,0.6-0.4,0.9c-0.1,0.3-0.1,0.7,0.1,1.2c-0.1,0-0.3,0-0.3,0.1s-0.1,0.1-0.2,0.2c0,0.1-0.1,0.1-0.2,0.2s-0.2,0.1-0.3,0
		c0.1,1.1,0.2,2.1,0.1,3.2c0,1.1-0.1,2.1-0.1,3.2c0,1.1,0,2.2,0,3.4c0,1.2,0.2,2.4,0.5,3.6c1.7-1,3.1-2.3,4.2-3.9
		c1-1.6,1.9-3.4,2.5-5.3c0.7-2,1.1-4.1,1.5-6.4c0.3-2.3,0.7-4.6,1.1-6.9c0.4-0.4,0.8-1,1-1.6c0.2-0.6,0.5-1.3,0.7-2
		c0.2-0.7,0.4-1.4,0.6-2.1c0.2-0.7,0.4-1.3,0.7-1.9c0.7,0.1,1.3,0.3,1.8,0.7s1,0.7,1.4,1.2c0.4,0.4,0.9,0.8,1.4,1.2
		c0.5,0.4,1.1,0.6,1.8,0.7c0.6,0.8,1.1,1.6,1.6,2.4c0.5,0.8,0.8,1.6,0.9,2.5c-0.2,0.4-0.4,0.8-0.5,1.3c-0.1,0.5-0.3,1-0.4,1.4
		c-0.1,0.5-0.3,0.9-0.6,1.3c-0.2,0.4-0.6,0.8-1,1c-0.1,1.3-0.3,2.4-0.5,3.4c-0.2,1-0.4,2.1-0.7,3.1s-0.4,2.1-0.5,3.1
		s-0.2,2.3-0.1,3.6c-0.4,1.1-0.8,2.3-1.2,3.5c-0.4,1.3-0.8,2.4-1,3.4c-0.8,0.6-1.4,1.4-1.8,2.2s-0.9,1.7-1.4,2.6
		c-0.2,0.2-0.3,0.2-0.4,0.1c0-0.1-0.2-0.2-0.5-0.2c0,0.2,0,0.3,0,0.4c0,0.1-0.1,0.2-0.2,0.3s-0.1,0.2-0.1,0.3c0,0.1,0,0.3,0.1,0.6
		c-0.7,0.3-1.3,0.7-1.8,1.2c-0.5,0.5-1.1,1-1.7,1.4c-0.6,0.4-1.3,0.7-2.2,0.9c-0.8,0.1-1.9,0-3.3-0.5c-2-1.4-3.7-3.1-5.2-5
		S401.4,131.5,400.4,128.9z"/>
	<path class="st4" d="M468.5,107.3c-1.2,0-2.5,0.1-3.9,0.3c-1.4,0.2-2.8,0.4-4.1,0.5c-1,0.1-1.9,0.3-2.8,0.4
		c-0.9,0.1-1.7,0.2-2.4,0.2c-0.3,1.1-0.7,2-1,2.8c-0.3,0.8-0.7,1.6-1.1,2.4c-0.4,0.8-0.7,1.7-1,2.5c-0.3,0.8-0.6,1.7-0.9,2.7
		c-0.5,0.8-0.9,1.5-1.2,2.1c-0.3,0.7-0.6,1.4-0.8,2.2c-0.6,0.7-1,1.5-1.3,2.3s-0.5,1.5-0.7,2.1l-0.3,0.9c-0.3,0.3-0.5,0.5-0.5,0.7
		c0,0.2-0.2,0.3-0.4,0.5c0,0.5-0.2,1.1-0.5,1.6c-0.1,0.2-0.2,0.5-0.2,0.7c0,0.2-0.1,0.4-0.1,0.5c0,0.5-0.1,0.8-0.4,0.9
		c0,0.2,0,0.5,0,0.8c0,0.3-0.1,0.5-0.1,0.8c-0.1,0.6-0.2,1-0.1,1.4c0.1,0.2,0.3,0.4,0.4,0.5c0.1,0.1,0.2,0.3,0.3,0.6
		c0.3,0.2,0.5,0.3,0.7,0.4c0.2,0.1,0.5,0.3,0.9,0.5l0.7,0.7c0.2,1.4,0,2.5-0.7,3.3c-0.7,0.9-2,1.4-3.7,1.4h-0.9
		c-0.2-0.2-0.4-0.4-0.4-0.6c-0.4-0.1-0.7-0.3-0.9-0.4c-0.2-0.1-0.5-0.3-0.7-0.6c-0.6-0.3-1.1-0.5-1.5-0.7l-0.7-0.4
		c0-0.5,0-0.8,0-0.9c-0.3-0.4-0.6-0.9-0.8-1.4c-0.2-0.5-0.3-1.1-0.4-1.6c-0.1-0.4-0.2-0.8-0.3-1.2c-0.1-0.4-0.3-0.7-0.5-1
		c-0.1-2.8,0.2-5.2,0.8-7.1c0.6-1.9,1.3-3.8,2-5.6c0.4-1,0.8-1.9,1.2-2.9c0.4-1,0.7-2,1-3.1l0.7-0.7c0.3-0.8,0.6-1.4,0.8-1.9
		s0.4-1,0.7-1.6c0.1-0.3,0.3-0.7,0.4-1c0.1-0.3,0.2-0.6,0.3-0.8c-0.3,0-0.6,0-0.8,0c-0.2,0-0.5,0.1-0.7,0.1c-0.3,0-0.6,0.1-0.8,0.1
		c-0.2,0-0.5,0-0.7,0c-0.3,0-0.6,0-0.7-0.1c-0.5,0.2-1.1,0.4-1.7,0.4h-0.7c-0.1,0-0.3,0-0.4,0c-0.1,0-0.2,0-0.3,0
		c-0.5,0-0.9,0.1-1.2,0.2c-0.6,0-1.1,0-1.7,0h-0.7c-0.1,0-0.2,0-0.4,0c-0.1,0-0.3,0-0.4,0c-0.3,0-0.7,0-1.1-0.1
		c-0.4-0.1-0.8-0.2-1.2-0.5c-0.6-0.8-1-1.2-1.2-1.2l-0.7-0.9c0-0.3-0.1-0.6-0.2-0.8c-0.1-0.3-0.2-0.6-0.3-0.9
		c-0.2-0.5-0.4-1-0.5-1.6c-0.2-0.6-0.3-1.2-0.3-2c0-0.4,0.1-0.7,0.3-0.9c0.1-0.2,0.3-0.4,0.4-0.5l0.2-1.1l0.9,0.1h2
		c1.5,0,3.1-0.1,4.7-0.2c1.6-0.1,3.2-0.3,4.9-0.4c1-0.1,1.9-0.2,2.9-0.3c1-0.1,2-0.2,3.1-0.3c0.2-0.4,0.4-0.8,0.6-1.2l0.7-0.4
		c0.9,0,1.5,0.1,1.8,0.3c0.4,0.3,0.7,0.5,0.9,0.8c1.1-0.1,2.1-0.2,3.2-0.3c1.1-0.1,2.2-0.3,3.3-0.5c1.6-0.2,3.3-0.5,5-0.7
		c1.7-0.2,3.3-0.3,4.8-0.3c0.7,0,1.3,0,2,0.1c0.6,0,1.2,0.1,1.7,0.2l0.7,0.5c0.1,0.3,0.3,0.6,0.6,0.8c0.3,0.2,0.5,0.5,0.8,0.7
		c0.6,0.5,1.2,1.2,1.7,1.9s0.8,1.8,0.7,3.2c-0.4,0.6-0.7,0.9-0.9,1l-0.7,0.9l-0.7-0.1c-0.3,0-0.6,0-0.8,0.1
		c-0.2,0.1-0.5,0.2-0.7,0.3c-0.2,0.1-0.4,0.2-0.6,0.3c-0.2,0.1-0.4,0.1-0.7,0.2c-0.4,0-0.8,0-1,0
		C469.1,107.3,468.8,107.3,468.5,107.3z"/>
	<path class="st4" d="M505.5,100.9c0.1,1.1,0.3,2,0.5,2.7c0.2,0.8,0.5,1.5,0.8,2.2c0.2,0.7,0.5,1.3,0.7,2s0.4,1.4,0.5,2.3
		c-0.4,1.3-0.7,2.4-0.8,3.5c-0.2,1.1-0.4,2.2-0.5,3.3c-0.8,1.7-1.5,3.2-2.2,4.5s-1.3,2.4-1.7,3.4c-0.2,0.2-0.4,0.5-0.6,0.8
		c-0.2,0.3-0.4,0.6-0.5,1c-0.1,0.1-0.2,0.4-0.4,0.7s-0.3,0.5-0.4,0.6l-1.4-0.5l-0.3,1.8l-1,0.3l-0.7,0.9c-0.9,1.6-1.9,2.9-2.9,4
		s-2.2,2-3.4,2.9c-1.3,0.8-2.7,1.6-4.3,2.3c-1.6,0.7-3.4,1.5-5.5,2.4c-0.8-0.1-1.5-0.2-2.1-0.2c-0.6,0-1.2-0.1-1.7-0.1
		c-0.9,0-2-0.1-3.4-0.2c-0.1-0.4-0.4-0.7-0.7-0.8s-0.6-0.2-0.8-0.2c-0.8-0.4-1.4-1-1.8-1.7c-0.4-0.7-0.8-1.6-1.2-2.4
		c-0.2-0.5-0.5-1-0.7-1.5c-0.2-0.5-0.5-0.9-0.8-1.4l1.2-0.4l-1.6-1.7c-0.1-0.1-0.2-0.3-0.4-0.4c-0.1-0.1-0.3-0.3-0.4-0.4l-0.1-1.2
		c-0.1-3.3-0.2-6.4-0.2-9.1c0-2.8,0.4-5.2,1.1-7.4v-0.8c0.1-1.1,0.3-1.9,0.4-2.6c0.1-0.7,0.3-1.4,0.4-2c0.1-1.1,0.4-2,0.7-3
		c0.7-0.1,1.2-0.4,1.5-0.8c0.3-0.4,0.6-0.8,0.9-1.1c0.7,0,1.1,0,1.4,0.3c0.2,0.2,0.5,0.6,0.7,1.2c0.2,0.4,0.5,0.9,0.9,1.4
		c0.4,0.5,0.9,0.9,1.6,1.2c0.1,0.4,0.2,0.8,0.4,1.2c0.2,0.4,0.3,0.9,0.5,1.3c0.4,0.8,0.7,1.7,1,2.6c0.3,0.9,0.5,1.7,0.5,2.6
		c-0.5,0.9-0.9,2-1.1,3.2c-0.3,1.2-0.4,2.4-0.5,3.6s0,2.4,0.1,3.5c0.1,1.1,0.3,2.1,0.6,2.9l0.4,0.9l1.2-0.1c1.4-0.4,2.8-0.8,3.9-1.3
		c1.2-0.5,2.3-1,3.3-1.6c1-0.6,2-1.4,2.9-2.2c0.9-0.8,1.9-1.8,2.9-2.9c1-1.1,1.9-2.4,2.6-3.8c0.7-1.4,1.4-2.9,1.9-4.4
		c0.5-1.5,0.9-3.1,1.2-4.6c0.3-1.5,0.4-3,0.5-4.3c0.8-0.3,1.2-0.9,1.2-1.7l-0.1-0.8c-0.2-0.3-0.2-0.6,0-1c0.3-0.9,1-1.6,2-2.1
		c0.8,0.5,1.5,1,2.1,1.6C504.4,99.8,505,100.4,505.5,100.9z"/>
	<path class="st4" d="M517.8,134.5c-0.5,1.9-1,3.4-1.4,4.4c-0.4,1-1,2-1.8,3.1c-0.6-0.1-1.1,0-1.3,0.2c-0.2,0.2-0.5,0.5-0.8,0.7
		c-0.4,0.1-0.7,0.1-0.9,0c-0.2-0.1-0.4-0.2-0.5-0.3c-0.1-0.1-0.3-0.2-0.5-0.4s-0.5-0.2-1-0.2c-0.1-0.4-0.2-0.7-0.3-1.1
		c-0.1-0.3-0.4-0.5-1-0.4c0.1-0.4,0.1-0.7,0.1-1c0-0.3-0.1-0.5-0.2-0.7s-0.1-0.4-0.2-0.7c0-0.2,0-0.5,0.1-0.8
		c-0.2,0-0.4-0.2-0.6-0.5c-0.1-0.3-0.3-0.7-0.5-1c0.1-0.9,0.3-1.7,0.4-2.5c0.1-0.8,0.3-1.5,0.5-2.2c0.2-0.7,0.4-1.3,0.5-2
		c0.1-0.7,0.1-1.4-0.2-2.1c0.2,0.1,0.3,0.1,0.4-0.1c0.1-0.2,0.2-0.5,0.2-0.9c0-0.4,0.1-0.7,0.1-1.1s0-0.7-0.1-0.9
		c0.5-1.3,0.9-2.5,1.2-3.9c0.3-1.3,0.6-2.6,0.9-3.9c0.3-1.3,0.5-2.6,0.8-3.8c0.3-1.3,0.7-2.4,1.2-3.5c0.5-0.1,1.1,0,1.8,0.2
		s1,0.5,1.2,0.8c1.3-1,2.4-2.1,3.3-3.5c1-1.4,2-2.7,3-4s2.1-2.5,3.4-3.5s2.8-1.6,4.7-1.8c1,0.7,2,1.5,3.2,2.2
		c1.2,0.7,2.2,1.7,2.9,2.9c0.4,0.2,0.7,0.4,1,0.6c0.3,0.2,0.6,0.4,1,0.7v0.9c0.6,0.5,1,1.1,1.4,1.8c0.4,0.7,0.7,1.4,1,2.2
		s0.6,1.6,0.9,2.4s0.6,1.6,1,2.3c-0.1,0.2-0.1,0.4-0.1,0.6c0,0.2,0,0.4,0.1,0.5c0.1,0.2,0.1,0.4,0.2,0.6c0,0.2,0,0.5,0,0.8
		c-0.1,2.1-0.8,3.8-2.1,5.1s-2.7,2.4-4.4,3.2c-1.7,0.8-3.6,1.6-5.6,2.1c-2,0.6-3.8,1.2-5.3,1.9c0,0.2,0.1,0.3,0.3,0.3
		c0.2,0,0.2,0.1,0.2,0.4c1.2,0.7,2.1,1.3,2.7,1.7c0.7,0.4,1.3,0.8,1.9,1.1c0.6,0.3,1.3,0.5,2,0.8c0.7,0.2,1.7,0.5,2.9,0.8
		c1.3,0.3,2.2,0.5,2.9,0.7c0.7,0.2,1.3,0.3,1.9,0.4c0.6,0.1,1.2,0.2,1.8,0.3c0.6,0.1,1.5,0.2,2.6,0.3c0.4,0.4,0.8,1,1.1,1.6
		c0.3,0.6,0.5,1.2,0.6,1.8c0.1,0.6,0.1,1.2,0.1,1.7c0,0.6-0.2,1-0.5,1.3c0,0.1,0.2,0.2,0.3,0.2c0.2,0,0.3,0,0.5,0
		c-0.3,0.2-0.5,0.4-0.7,0.7c-0.2,0.3-0.4,0.6-0.6,0.9c-0.2,0.3-0.4,0.5-0.7,0.8c-0.2,0.2-0.6,0.3-1,0.4c-1.5,0.6-3.4,0.6-5.6,0.1
		c-2.3-0.5-5.1-1.4-8.6-2.8c-1.7-0.7-3.1-1.3-4.2-1.8s-2-1-2.8-1.5s-1.5-1-2.2-1.6S518.7,135.4,517.8,134.5z M528.1,109.8
		c-0.5,0.8-1.1,1.5-1.8,2.1c-0.7,0.6-1.3,1.3-1.9,1.9c-0.6,0.7-1.1,1.4-1.6,2.2c-0.5,0.8-0.8,1.7-1,2.8c1.7-0.2,3.4-0.7,5.3-1.4
		c1.8-0.7,3.6-1.5,5.2-2.1c-0.2-1.5-0.7-2.7-1.6-3.6C529.9,110.6,529,110,528.1,109.8z"/>
	<path class="st4" d="M586.5,101.4c0,0.3,0.1,0.6,0,0.8c0,0.2,0,0.3-0.1,0.5c0,0.1,0,0.3,0,0.5c0,0.2,0,0.4,0.1,0.8
		c-1,1.6-2.2,2.8-3.5,3.4c-1.3,0.6-2.8,1-4.3,1.3c-1.5,0.3-3.1,0.5-4.7,0.8c-1.6,0.3-3.2,0.9-4.8,1.9c-0.6-0.2-1.2-0.2-1.7,0
		c-0.5,0.2-1.2,0.3-2.2,0.2c-0.3,0.3-0.7,0.5-1.1,0.6c-0.4,0.1-0.9,0.3-1.3,0.4c0.2,0.4,0.3,0.9,0.3,1.3c0,0.5,0,0.8,0.2,1.1
		c1.7,0.1,3.6,0.1,5.6-0.1c2-0.2,4.1-0.3,6-0.4c0,0.2,0,0.4-0.1,0.5c-0.1,0.1-0.1,0.2-0.1,0.4c0.3,0.2,0.7,0.5,1,0.9
		c0.3,0.4,0.7,0.7,1,1c0.3,0.3,0.7,0.6,1,0.8s0.8,0.3,1.3,0.3c0.2,0.4,0.3,0.8,0.4,1.3c0.1,0.5,0,0.9-0.2,1.4
		c-0.8,0.5-1.5,1.1-2.3,1.6c-0.8,0.6-1.6,1-2.4,1.5c-0.8,0.4-1.7,0.8-2.7,1c-0.9,0.3-2,0.4-3.1,0.3c-0.2,0-0.4,0-0.5,0
		c-0.1,0-0.3-0.1-0.5-0.2c-0.4,0.2-0.9,0.3-1.6,0.2c-0.7-0.1-1.2,0-1.6,0.2c-0.5-0.2-1.2-0.3-1.9-0.3c-0.7,0-1.4-0.1-2-0.3
		c-0.8,1-1.5,2.1-2.1,3.3c-0.6,1.2-1.2,2.4-1.7,3.7c1.6,0.2,3,0.3,4.1,0.3c1.1,0,2.1-0.1,3.1-0.3c1-0.1,2-0.2,3-0.4
		c1-0.1,2.3-0.2,3.8-0.1c1-0.5,2.1-0.9,3.4-1c1.3-0.2,2.5-0.4,3.6-0.8c0.4,0.1,0.7,0.4,1,0.8s0.6,0.7,0.8,1c0.3,0.3,0.5,0.6,0.8,0.8
		c0.3,0.2,0.7,0.3,1.1,0.3c0.2,0.2,0.3,0.4,0.4,0.7c0.1,0.3,0.1,0.5,0.2,0.8c0,0.2,0.1,0.4,0.3,0.6c0.1,0.2,0.3,0.2,0.6,0.2
		c-0.7,1.6-1.6,2.8-2.5,3.6c-0.9,0.8-2,1.5-3.2,1.9c-1.2,0.4-2.5,0.8-4,1c-1.5,0.2-3.1,0.5-4.9,0.9c-0.4,0.1-0.8,0.1-1.1,0
		c-0.3-0.1-0.6-0.2-1-0.2c-1.1,0.2-2.4,0.5-4,0.7c-1.5,0.2-3.1,0.3-4.7,0.2c-1.6,0-3.1-0.3-4.6-0.6s-2.6-1-3.5-1.9
		c-0.4-0.3-0.6-0.7-0.8-1.2c-0.1-0.5-0.4-0.8-1-1c0-0.6-0.1-1.3-0.3-2.1c-0.1-0.8-0.3-1.6-0.4-2.4c-0.1-0.8-0.3-1.7-0.3-2.5
		c-0.1-0.8,0-1.6,0.1-2.2c0.1-0.7,0.4-1.4,0.9-2c0.5-0.6,0.6-1.2,0.5-1.9c0.2,0,0.4-0.2,0.4-0.4c0-0.2,0.2-0.3,0.6-0.3
		c0.3-0.9,0.6-1.7,0.9-2.5c0.3-0.8,0.7-1.5,1-2.2s0.7-1.5,1.1-2.2c0.4-0.7,0.7-1.6,1-2.5c-0.7-0.6-1.2-1.3-1.5-2.1
		c-0.3-0.7-0.5-1.5-0.7-2.2c-0.1-0.7-0.3-1.5-0.4-2.3c-0.1-0.8-0.3-1.6-0.5-2.4c0.5-0.7,1.1-1.3,1.8-1.8c0.7-0.5,1.5-0.8,2.3-1.1
		c0.8-0.3,1.7-0.5,2.7-0.7c1-0.2,2-0.4,3-0.7c1.9-0.6,3.6-1.1,5.2-1.4c1.5-0.3,3-0.6,4.5-0.8c1.5-0.2,3-0.4,4.6-0.6
		c1.6-0.2,3.4-0.5,5.4-0.9c0.4,0.4,0.8,0.7,1.2,0.7c0.2-0.4,0.4-0.6,0.7-0.4c0.3,0.2,0.4,0,0.3-0.4c0.5,0.8,1.1,1.5,1.8,2.1
		C584.8,100.5,585.6,101,586.5,101.4z"/>
</g>
<path class="st2" d="M768.5,66c-3.1,2.4-6.7,3.6-10.6,3.6c-3.3,0-6.3-0.6-8.8-1.8c-2.5-1.2-4.7-2.8-6.4-5.1c-1.8-2.2-3-4.8-3.9-7.8
	c-0.9-3.1-1.3-6.4-1.3-10.2c0-3.9,0.5-7.5,1.6-10.7c1-3.2,2.5-5.8,4.4-8.1c1.9-2.2,4.1-3.9,6.6-5.1s5.3-1.8,8.2-1.8
	c3.8,0,7.3,0.8,10.3,2.6V3.3h11.9v65.2h-11.9V66H768.5z M768.5,33.6c-3-2.8-6.3-4.3-9.8-4.3c-2.8,0-5,1.3-6.6,3.8
	c-1.7,2.6-2.5,6.4-2.5,11.6c0,4.9,0.8,8.6,2.3,11.1c1.5,2.4,3.7,3.7,6.5,3.7c3.5,0,6.9-2.1,10-6.3V33.6L768.5,33.6z"/>
</svg>
